<?xml version="1.0" encoding="UTF-8" standalone="no"?>
<!-- Generator: Adobe Illustrator 15.1.0, SVG Export Plug-In . SVG Version: 6.00 Build 0)  -->

<svg
   xmlns:xhtml="http://www.w3.org/1999/xhtml"
   xmlns:osb="http://www.openswatchbook.org/uri/2009/osb"
   xmlns:dc="http://purl.org/dc/elements/1.1/"
   xmlns:cc="http://creativecommons.org/ns#"
   xmlns:rdf="http://www.w3.org/1999/02/22-rdf-syntax-ns#"
   xmlns:svg="http://www.w3.org/2000/svg"
   xmlns="http://www.w3.org/2000/svg"
   xmlns:xlink="http://www.w3.org/1999/xlink"
   xmlns:sodipodi="http://sodipodi.sourceforge.net/DTD/sodipodi-0.dtd"
   xmlns:inkscape="http://www.inkscape.org/namespaces/inkscape"
   version="1.1"
   id="Layer_1"
   x="0px"
   y="0px"
   width="1200"
   height="350"
   viewBox="0 0 1200.0004 350"
   xml:space="preserve"
   inkscape:version="0.91 r13725"
   sodipodi:docname="DevFest Seattle 2018.svg"
   inkscape:export-filename="/Users/margaret/Drive/1_Community/0_Organize/1_GDG/GDG Seattle/2018/11 Nov - DevFest Seattle/DevFest website/Images/logos/DevFest Seattle 2018_white.png"
   inkscape:export-xdpi="31.9974"
   inkscape:export-ydpi="31.9974"><sodipodi:namedview
     pagecolor="#ffffff"
     bordercolor="#666666"
     borderopacity="1"
     objecttolerance="10"
     gridtolerance="10"
     guidetolerance="10"
     inkscape:pageopacity="0"
     inkscape:pageshadow="2"
     inkscape:window-width="1321"
     inkscape:window-height="766"
     id="namedview148"
     showgrid="false"
     inkscape:zoom="0.59043111"
     inkscape:cx="540.34623"
     inkscape:cy="379.10204"
     inkscape:current-layer="Layer_1"
     inkscape:window-x="0"
     inkscape:window-y="1"
     inkscape:window-maximized="0" /><metadata
     id="metadata150"><rdf:RDF><cc:Work
         rdf:about=""><dc:format>image/svg+xml</dc:format><dc:type
           rdf:resource="http://purl.org/dc/dcmitype/StillImage" /><dc:title></dc:title></cc:Work></rdf:RDF></metadata><defs
     id="defs3"><linearGradient
       id="linearGradient4668"
       osb:paint="solid"><stop
         style="stop-color:#4d4d4d;stop-opacity:1;"
         offset="0"
         id="stop4670" /></linearGradient><xhtml:link
       type="text/css"
       rel="stylesheet"
       href="http://fonts.googleapis.com/css?family=Open+Sans" /><mask
       id="SVGID_8_"><g
         id="use18"
         transform="translate(-107,-361)"><rect
           height="69"
           width="178.54688"
           y="361.5"
           x="207"
           style="fill:#f0f0f0"
           id="rect4362" /><g
           id="g4364"><clipPath
             id="clipPath4366"><rect
               height="70"
               width="100"
               y="361"
               x="107"
               id="rect4368" /></clipPath><path
             inkscape:connector-curvature="0"
             clip-path="url(#clipLeft)"
             d="m 504.016,393.119 -17.203,-28.654 c -0.951,-1.582 -3.242,-2.881 -5.092,-2.881 l -0.057,0 -371.181,0.004 c -1.719,0 -2.408,1.135 -1.738,2.564 l 17.322,28.959 c 0.951,1.59 0.951,4.18 0,5.762 l -17.211,28.652 c -0.951,1.582 -0.216,2.881 1.627,2.881 l 371.237,-0.004 c 1.85,0 4.141,-1.291 5.092,-2.879 l 17.203,-28.645 c 0.953,-1.587 0.953,-4.177 0.001,-5.759 z"
             style="fill:#f0f0f0"
             id="path4370" /></g><g
           transform="translate(-20.453125,0)"
           id="g4372"><clipPath
             id="clipPath4374"><rect
               height="70"
               width="100"
               y="361"
               x="405"
               id="rect4376" /></clipPath><path
             inkscape:connector-curvature="0"
             clip-path="url(#clipRight)"
             d="m 504.016,393.119 -17.203,-28.654 c -0.951,-1.582 -3.242,-2.881 -5.092,-2.881 l -0.057,0 -371.181,0.004 c -1.719,0 -2.408,1.135 -1.738,2.564 l 17.322,28.959 c 0.951,1.59 0.951,4.18 0,5.762 l -17.211,28.652 c -0.951,1.582 -0.216,2.881 1.627,2.881 l 371.237,-0.004 c 1.85,0 4.141,-1.291 5.092,-2.879 l 17.203,-28.645 c 0.953,-1.587 0.953,-4.177 0.001,-5.759 z"
             style="fill:#f0f0f0"
             id="path4378" /></g></g></mask></defs><g
     transform="translate(-107,-80.997919)"
     id="backgroundImage"
     style="display:none"
     mask="url(#SVGID_8_)"><image
       transform="translate(107,361)"
       id="image"
       width="377.547"
       height="251.698"
       xlink:href=""
       y="0"
       style="opacity:1" /></g><g
     transform="translate(-99.882808,-174.52792)"
     id="world"
     style="opacity:1"
     mask="url(#SVGID_8_)"><path
       style="fill:#e0e0e0"
       d="m 274.912,331.339 c 0.17,-0.072 0.597,0.106 0.714,0 0.382,-0.343 0.642,-1.474 1.084,-2.15 0.601,-0.923 1.242,-0.958 1.423,-1.791 0.164,-0.674 -0.64,-2.503 -0.339,-3.937 0.099,-0.567 0.699,-0.83 1.062,-1.421 0.672,-1.136 1.125,-1.964 1.785,-3.219 0.711,-1.327 0.883,-3.33 0.359,-5.736 0.529,-0.424 1.005,-0.893 1.439,-1.429 -0.75,-3.098 -0.016,-6.104 1.428,-8.59 0.315,-0.557 0.511,-1.167 0.714,-1.43 1.181,-1.654 4.053,-2.475 3.941,-5.015 -1.059,-1.82 -3.8,-1.493 -5.737,-0.699 -0.318,-0.642 -0.859,-1.062 -1.07,-1.808 0.283,-1.035 1.693,-0.918 1.421,-2.498 -0.509,-1.023 -1.622,-1.341 -2.495,-2.143 -1.474,-1.372 -2.033,-2.6 -4.293,-3.219 -0.673,-0.191 -1.956,-0.404 -2.497,-0.357 -0.723,0.035 -1.873,1.17 -3.229,1.426 -0.972,0.185 -2.033,-0.205 -2.505,0 -1.419,0.627 -2.088,2.574 -3.574,3.21 -1.213,0.535 -1.937,-0.519 -2.867,0.731 -0.901,-1.482 -3.142,-1.63 -5.729,-1.443 -0.176,-4.702 -4.25,-5.523 -7.512,-7.158 l -5.714,0 c -1.784,1.927 -5.659,1.746 -8.599,2.518 -1.04,0.619 -0.9,2.425 -1.793,3.22 -0.715,-0.369 -0.554,-1.591 -1.776,-1.443 -3.732,1.653 -4.975,5.775 -5.387,10.74 0.33,1.474 2.659,0.943 2.88,2.508 -0.593,1.917 -2.599,2.416 -4.665,2.86 -1.783,-0.123 -1.287,-2.538 -3.571,-2.15 -2.346,1.876 2.748,4.446 -0.369,6.08 -1.729,-0.854 -2.597,-2.487 -1.774,-4.994 -1.247,-1.575 -2.889,-0.581 -5.374,-0.732 -1.076,2.063 0.81,3.239 1.069,5.016 1.706,0.215 3.162,0.659 3.584,2.142 1.12,0.184 1.262,-0.639 2.495,-0.337 1.393,2.867 7.244,4.375 10.741,2.845 0.443,-1.012 0.443,-2.215 0,-3.207 -2.096,-1.564 -5.868,0.732 -6.429,-2.154 2.006,-1.176 2.988,1.423 5.717,0.712 0.86,1.034 2.065,1.18 3.578,0.711 1.047,-1.482 1.406,-3.098 2.859,-4.283 0.454,-0.369 1.469,-0.317 2.146,-0.711 0.593,-0.342 0.742,-1.097 1.438,-1.086 0.531,-1.018 0.652,-2.446 1.421,-3.218 2.82,-0.292 4.008,-2.194 6.451,-2.857 0.398,1.03 0.642,2.216 0.711,3.58 -1.75,1.693 -5.607,1.294 -7.871,2.495 0.91,2.968 -0.945,6.608 1.078,8.588 2.96,0.68 5.05,0.029 6.441,2.152 0.741,1.137 1.205,4.566 1.084,7.165 -0.062,1.024 -0.699,2.103 -0.732,3.219 -0.031,1.034 0.462,2.205 0.36,2.854 -0.167,1.069 -1.392,1.888 -1.071,2.863 -0.142,1.462 1.524,1.104 1.793,2.147 -0.982,1.371 -2.614,2.844 -2.867,5.374 -0.188,1.907 0.792,6.148 1.434,8.222 0.521,1.756 0.665,2.832 1.788,3.583 0.359,0.227 0.989,0.069 1.431,0.357 0.934,0.596 1.364,1.933 2.51,1.438 1.709,-1.111 2.063,-3.209 3.217,-5.015 0.161,-0.263 0.144,-0.794 0.364,-1.063 0.097,-0.161 0.631,-0.233 0.7,-0.375 0.565,-1.02 0.34,-2.322 1.438,-3.209 0.949,-0.781 3.576,-0.66 5.371,-1.806 1.385,-0.868 2.116,-2.785 3.932,-3.566 1.334,-0.586 3.531,-0.38 5.017,-1.073 0.159,-0.093 0.23,-0.663 0.36,-0.713 0.184,-0.082 0.541,0.111 0.711,0 0.131,-0.101 0.244,-0.663 0.35,-0.721 z"
       id="path23"
       inkscape:connector-curvature="0" /><path
       style="fill:#e0e0e0"
       d="m 367.235,294.115 c 0.221,0.132 0.473,0.604 0.724,0.726 2.155,0.955 3.647,0.058 5.364,-0.361 0.662,0.902 0.662,2.445 2.147,2.508 1.216,-0.454 2.057,-1.297 2.511,-2.508 -0.717,-0.804 -1.382,-2.059 -2.873,-2.15 -1.093,-0.069 -1.423,0.364 -2.495,0.717 -1.168,-1.574 -2.492,-3.001 -5.017,-3.224 -0.662,-1.352 -1.401,-2.634 -3.571,-2.498 -1.354,1.767 -0.773,3.941 0.353,5.359 0.257,0.323 2.417,1.153 2.857,1.431 z"
       id="path25"
       inkscape:connector-curvature="0" /><path
       style="fill:#e0e0e0"
       d="m 218.014,297.345 c 0.834,0 1.677,0 2.511,0 0.188,1.115 0.635,1.999 1.073,2.861 0.992,0.26 1.092,-0.813 1.434,-1.443 1.466,-2.698 -0.402,-3.532 -2.155,-4.647 0.099,-1.504 -1.036,-1.815 -1.436,-2.85 -3.693,-0.343 -3.109,4.788 -1.427,6.079 z"
       id="path27"
       inkscape:connector-curvature="0" /><path
       style="fill:#e0e0e0"
       d="m 416.982,293.046 c -0.989,-2.396 -6.128,-1.381 -7.861,-0.362 -0.526,6.079 7.462,4.615 7.861,0.362 z"
       id="path29"
       inkscape:connector-curvature="0" /><path
       style="fill:#e0e0e0"
       d="m 421.987,292.329 c -0.119,-0.722 -1.295,-0.857 -2.495,-0.356 -0.072,2.415 2.689,1.39 2.495,0.356 z"
       id="path31"
       inkscape:connector-curvature="0" /><path
       style="fill:#e0e0e0"
       d="m 209.068,296.26 c 0.942,-0.369 1.604,-1.02 1.786,-2.145 0.855,-0.337 1.766,-0.63 1.438,-2.143 -0.595,0 -1.188,0 -1.788,0 0.05,1.845 -2.353,1.234 -3.219,2.143 -0.071,1.389 0.573,2.059 1.783,2.145 z"
       id="path33"
       inkscape:connector-curvature="0" /><path
       style="fill:#e0e0e0"
       d="m 338.263,298.061 c 0.858,0.098 0.67,-0.201 1.431,-0.716 1.295,-0.898 1.232,-0.943 1.786,-2.153 0.3,-0.633 0.975,-0.854 0.711,-1.424 -1.034,-0.893 -1.785,1.542 -3.219,1.424 -0.731,-0.459 -0.64,-1.73 -2.147,-1.424 -1.542,2.113 -0.144,4.091 1.438,4.293 z"
       id="path35"
       inkscape:connector-curvature="0" /><path
       style="fill:#e0e0e0"
       d="m 199.423,300.206 c -0.272,2.648 1.112,3.65 2.133,5.005 3.302,-0.813 7.893,0.781 8.599,-2.145 0.269,-1.216 -0.543,-0.864 -1.086,-1.797 -0.36,-0.601 0.092,-1.838 -1.062,-1.775 -1.495,-0.287 -0.682,1.714 -2.157,1.422 -1.071,-0.831 -1.513,-2.295 -2.147,-3.571 0.302,-1.01 1.162,-1.474 1.076,-2.865 -1.535,-1.087 -2.64,-0.662 -3.934,0 -1.413,0.722 -3.953,1.522 -3.953,2.865 0.532,1.276 2.11,1.497 2.531,2.861 z"
       id="path37"
       inkscape:connector-curvature="0" /><path
       style="fill:#e0e0e0"
       d="m 333.61,299.125 c 0,-0.704 0,-1.427 0,-2.138 -1.027,-0.834 -2.704,-0.058 -3.587,0.357 0.326,1.555 1.869,2.678 3.587,1.781 z"
       id="path39"
       inkscape:connector-curvature="0" /><path
       style="fill:#e0e0e0"
       d="m 419.852,299.842 c 0.211,-1.28 -1.066,-1.094 -2.145,-1.079 -0.492,1.615 1.44,1.746 2.145,1.079 z"
       id="path43"
       inkscape:connector-curvature="0" /><path
       style="fill:#e0e0e0"
       d="m 309.625,312.732 c 2.349,-0.156 1.342,-3.662 3.222,-4.306 0.469,0.965 0.771,2.096 2.505,1.799 1.347,-2.408 -2.225,-2.701 -2.145,-5.015 1.943,-0.561 3.992,-1.005 3.94,-3.574 -0.973,-1.305 -3.42,-1.119 -5.727,-1.073 -0.97,0.697 -1.635,1.711 -2.856,2.149 -0.867,0.469 -2.48,0.142 -3.229,0.712 -1.155,2.8 1.272,4.523 2.497,6.079 0.05,1.64 0.873,2.488 1.793,3.229 z"
       id="path45"
       inkscape:connector-curvature="0" /><path
       style="fill:#e0e0e0"
       d="m 348.279,325.969 c -0.411,-2.284 -1.986,-2.844 -2.147,-5.003 -0.062,-0.772 0.493,-1.544 0.712,-2.502 0.243,-1.086 0.04,-2.11 0.374,-2.872 0.1,-0.258 0.801,-0.664 1.062,-1.074 0.353,-0.584 0.419,-1.403 0.702,-1.785 1.321,-1.706 3.921,-2.589 3.94,-4.643 -0.3,-0.771 -0.871,-1.274 -2.145,-1.094 -0.573,0.897 -1.064,1.402 -2.146,2.153 -1.853,1.302 -2.719,1.247 -3.934,3.219 -1.202,1.947 -1.064,3.447 -1.434,6.453 -0.23,1.907 -0.872,4.092 -0.711,4.64 0.512,1.717 3.433,3.271 5.727,2.508 z"
       id="path49"
       inkscape:connector-curvature="0" /><path
       style="fill:#e0e0e0"
       d="m 283.522,338.495 c -2.724,-0.669 -6.321,-0.019 -8.61,0 -0.41,2.054 0.153,4.708 2.147,5.37 3.269,1.094 8.564,-2.337 6.463,-5.37 z"
       id="path51"
       inkscape:connector-curvature="0" /><path
       style="fill:#e0e0e0"
       d="m 453.12,362.108 c -0.051,0.781 0.297,1.133 1.08,1.084 0.061,-0.781 -0.294,-1.146 -1.08,-1.084 z"
       id="path53"
       inkscape:connector-curvature="0" /><path
       style="fill:#e0e0e0"
       d="m 454.2,372.128 c 2.158,-0.818 4.573,-1.384 5.011,-3.931 -1.548,-0.713 -2.915,-1.614 -5.011,-1.786 0.1,2.054 -1.572,4.343 0,5.717 z"
       id="path55"
       inkscape:connector-curvature="0" /><path
       style="fill:#e0e0e0"
       d="m 452.777,380.359 c -0.652,0.804 -1.049,1.647 -1.804,2.15 -1.857,0.771 -4.144,1.981 -4.646,3.94 -0.36,1.411 -0.874,3.067 1.425,3.581 0.871,-0.687 0.653,-2.457 1.796,-2.864 1.525,-0.345 2.731,-1.176 3.941,-1.793 1.394,-0.709 2.688,-1.279 3.936,-2.147 -0.224,-4.077 1.071,-9.652 -2.859,-10.024 -0.511,1.716 0.427,3.501 0,5.015 -0.273,0.912 -1.273,1.492 -1.789,2.142 z"
       id="path57"
       inkscape:connector-curvature="0" /><path
       style="fill:#e0e0e0"
       d="m 306.76,380.359 c -0.532,0.545 -0.627,2.453 0.717,2.15 0.556,-0.545 0.643,-2.457 -0.717,-2.15 z"
       id="path59"
       inkscape:connector-curvature="0" /><path
       style="fill:#e0e0e0"
       d="m 312.505,385.729 c 1.213,0.156 2.023,-0.111 1.775,-1.429 -1.042,0.035 -2.016,0.127 -1.775,1.429 z"
       id="path61"
       inkscape:connector-curvature="0" /><path
       style="fill:#e0e0e0"
       d="m 437.373,400.041 c -0.513,0.519 -0.513,2.356 0,2.865 1.526,-0.046 1.583,-1.757 1.082,-2.865 -0.351,0 -0.71,0 -1.082,0 z"
       id="path63"
       inkscape:connector-curvature="0" /><path
       style="fill:#e0e0e0"
       d="m 211.216,407.201 c -0.35,-1.917 -2.326,-2.205 -4.29,-2.492 l 0,0.255 c -0.486,-0.201 -0.955,-0.416 -1.424,-0.57 l 0,-0.411 c 0.049,-0.591 -2.208,-0.591 -2.147,0 0.741,0.2 1.012,0.893 2.147,0.727 l 0,-0.298 1.424,0.563 0,0.434 c 0.692,1.222 2.344,3.002 4.29,1.792 z"
       id="path65"
       inkscape:connector-curvature="0" /><path
       style="fill:#e0e0e0"
       d="m 213.361,409.349 c 1.406,1.024 3.812,0.692 4.652,-0.717 -0.416,-1.736 -5.225,-2.375 -4.652,0.717 z"
       id="path67"
       inkscape:connector-curvature="0" /><path
       style="fill:#e0e0e0"
       d="m 439.889,408.632 c -3.84,-0.127 -1.823,5.897 -0.717,7.165 1.031,0.029 2.344,-0.203 2.874,0.338 -1.387,1.225 -0.188,3.043 0,4.308 0.139,1.009 -0.132,1.932 0,2.146 0.401,0.785 2.289,1.946 2.852,1.795 2.186,-0.555 1.57,-4.195 -0.361,-5.362 0.058,-0.887 0.058,-1.74 -0.353,-2.154 -1.153,-1.24 -2.916,-1.992 -3.571,-3.94 -0.474,-1.355 0.54,-3.09 -0.724,-4.296 z"
       id="path69"
       inkscape:connector-curvature="0" /><path
       style="fill:#e0e0e0"
       d="m 431.295,441.915 c 0.129,-1.509 -1.535,-2.371 -2.497,-2.498 -1.013,-0.151 -1.918,0.541 -2.857,0.365 -0.511,-0.127 -1.406,-0.565 -1.798,-0.737 -0.649,-0.258 -1.622,-0.33 -1.783,-1.071 0.01,-1.176 0.603,-1.78 0.35,-3.224 -1.266,-1.182 -1.944,-1.484 -2.5,-2.854 -0.732,-1.776 -0.388,-5.519 -1.068,-6.791 -0.62,-1.16 -2.468,-1.584 -3.229,-2.517 -0.405,-0.484 -0.491,-1.444 -0.712,-1.786 -0.437,-0.692 -0.662,-0.662 -1.076,-1.424 -0.092,-0.292 -0.298,-0.434 -0.713,-0.357 -1.654,3.495 3.45,4.732 1.789,8.234 -1.855,-0.414 -2.217,-2.331 -4.653,-2.15 -0.766,1.857 1.541,2.932 2.506,4.283 0.109,0.161 -0.092,0.541 0,0.712 0.04,0.121 0.622,0.23 0.709,0.347 0.111,0.172 -0.079,0.557 0,0.732 0.064,0.126 0.635,0.212 0.714,0.364 0.544,0.933 1.013,2.79 1.437,3.207 1.2,1.258 2.768,2.832 3.94,3.584 0.459,0.312 1.272,0.352 1.796,0.711 0.952,0.705 1.253,1.796 2.143,2.147 0.404,0.166 1.558,-0.181 2.497,0 0.657,0.137 1.248,0.662 1.788,0.723 1.158,0.131 2.066,-0.103 3.217,0 z"
       id="path71"
       inkscape:connector-curvature="0" /><path
       style="fill:#e0e0e0"
       d="m 434.164,423.662 c -2.453,2.441 -4.786,5.004 -8.224,6.438 -1.208,4.385 3.647,7.175 7.859,6.094 0.776,-1.86 2.499,-3.938 2.87,-5.747 0.183,-0.897 -0.43,-1.82 -0.365,-2.845 0.074,-1.155 1.059,-1.674 0.717,-2.871 -0.82,-0.479 -1.185,-1.432 -2.857,-1.069 z"
       id="path73"
       inkscape:connector-curvature="0" /><path
       style="fill:#e0e0e0"
       d="m 438.455,432.255 c -1.319,1.002 -1.392,3.894 -0.351,5.366 1.183,0 2.379,0 3.569,0 0.372,-1.126 -0.223,-2.995 0,-5.004 -0.577,-0.61 -2.103,-0.293 -3.218,-0.362 z"
       id="path75"
       inkscape:connector-curvature="0" /><path
       style="fill:#e0e0e0"
       d="m 464.22,434.75 c -1.782,-0.625 -3.601,-1.195 -5.009,-1.059 -0.938,0.07 -1.786,0.883 -2.853,0.701 -0.7,-0.625 -1.032,-1.609 -1.793,-2.138 -0.958,0 -2.059,-0.142 -2.507,0.362 0.342,1.513 0.729,2.713 1.785,3.576 0.407,0.327 1.242,0.131 1.783,0.345 0.57,0.241 0.972,0.855 1.443,1.083 0.654,0.323 1.252,0.035 1.783,0.353 1.168,0.702 1.015,2.229 1.436,3.594 1.746,0.407 2.768,1.63 4.643,1.416 1.305,-0.137 1.799,-1.595 3.225,-1.416 1.892,0.604 2.043,2.951 5.022,2.492 0.56,-1.745 -2.396,-2.774 -2.156,-5.364 -2.084,-1.532 -3.902,-2.899 -6.802,-3.945 z"
       id="path77"
       inkscape:connector-curvature="0" /><path
       style="fill:#e0e0e0"
       d="m 472.097,459.804 c -0.334,-0.596 -0.37,-1.654 -0.715,-2.144 -0.783,-1.106 -1.896,-1.575 -2.509,-2.871 -1.102,-2.285 -0.99,-4.874 -2.143,-6.074 -0.823,-0.854 -0.787,-2.387 -2.147,-2.508 -2.066,1.161 -0.753,5.702 -2.867,6.801 -2.228,-0.401 -3.832,-1.416 -4.646,-3.224 0.312,-0.873 0.834,-1.548 0.702,-2.854 -2.036,-1.024 -4.165,-1.775 -6.079,-1.074 -1.865,0.669 -1.967,3.239 -3.941,3.571 -0.78,-0.283 -1.381,-0.762 -2.495,-0.712 -1.797,1.19 -2.71,3.254 -5.014,3.931 -1.146,5.528 -8.309,2.942 -10.731,6.8 -0.886,1.402 -1.106,4.021 -1.076,5.728 0.049,2.416 1.232,4.833 1.076,7.521 -0.079,1.23 -1.126,2.446 -0.714,3.929 0.511,0.209 0.87,0.556 1.073,1.076 1.812,0.625 3.378,-1.105 5.354,-1.438 0.813,-0.127 1.935,0.283 2.879,0 1.072,-0.337 1.896,-1.409 2.851,-1.781 0.893,-0.342 2.222,-0.539 3.229,-0.721 4.395,-0.791 6.527,0 7.51,3.576 1.617,0.769 2.803,1.687 3.568,3.234 0.604,1.16 0.475,2.326 1.097,3.566 1.374,1.594 4.583,1.379 6.791,2.15 0.87,-1.025 2.697,-1.127 3.94,-1.786 1.126,-1.116 1.014,-2.557 1.783,-3.931 0.084,-0.142 0.605,-0.211 0.722,-0.362 0.203,-0.283 0.193,-0.823 0.347,-1.074 0.399,-0.602 0.739,-1.302 1.081,-1.798 0.799,-1.129 1.944,-1.791 2.498,-2.855 0.2,-0.369 0.28,-1.18 0.359,-1.433 0.475,-1.396 1.288,-3.21 1.443,-4.645 0.438,-4.073 -1.102,-5.439 -2.515,-7.882 -0.18,-0.323 -0.573,-0.474 -0.711,-0.716 z"
       id="path79"
       inkscape:connector-curvature="0" /><path
       style="fill:#e0e0e0"
       d="m 354.368,446.567 c -1.096,0.771 -1.305,1.946 -2.505,2.859 -0.636,0.488 -1.659,0.357 -2.15,0.722 -1.711,1.221 -1.022,2.679 -1.434,5.005 -0.173,0.962 -0.969,1.714 -1.062,2.854 -0.173,1.712 -0.031,2.649 1.062,3.95 3.901,0.796 4.784,-3.526 5.727,-6.083 1.052,-2.867 2.872,-6.731 1.436,-9.308 -0.372,0.001 -0.731,0.001 -1.074,0.001 z"
       id="path81"
       inkscape:connector-curvature="0" /><path
       style="fill:#e0e0e0"
       d="m 496.427,484.862 -0.712,0 c 0.201,3.526 -2.59,4.102 -1.796,8.224 -1.073,0 -2.135,0 -3.217,0 -1.047,1.111 -1.912,2.518 -3.212,3.576 -2.348,1.917 -6.748,2.599 -5.377,6.803 3.671,1.674 4.774,-2.579 6.079,-3.931 0.174,-0.171 0.905,-0.243 1.084,-0.357 0.582,-0.394 0.799,-0.858 1.062,-1.438 0.05,-0.102 0.63,-0.248 0.724,-0.354 0.971,-1.171 1.773,-2.209 2.505,-3.229 1.364,-0.147 2.582,-1.045 3.22,-1.786 0.374,-0.419 0.412,-1.05 0.714,-1.422 1.144,-1.393 1.846,-1.331 1.795,-2.517 -0.092,-1.658 -2.046,-1.917 -2.869,-3.569 z"
       id="path83"
       inkscape:connector-curvature="0" /><path
       style="fill:#e0e0e0"
       d="m 460.289,489.505 c -1.078,1.004 -1.545,3.768 -0.359,5.015 2.718,0.102 3.69,-1.565 3.582,-4.289 -1.026,-0.307 -2.219,-0.434 -3.223,-0.726 z"
       id="path85"
       inkscape:connector-curvature="0" /></g><g
     transform="matrix(3.6584633,0,0,3.8749305,-360.06055,-1359.4512)"
     id="colorangle"><g
       id="g88"><radialGradient
         id="SVGID_1_"
         cx="106.8687"
         cy="360.1709"
         r="80.393799"
         gradientUnits="userSpaceOnUse"><stop
           offset="0"
           style="stop-color:#FFCE4E"
           id="stop91" /><stop
           offset="1"
           style="stop-color:#F5C337"
           id="stop93" /></radialGradient><path
         style="fill:url(#SVGID_1_)"
         d="m 133.117,404.787 -15.423,25.619 7.789,0 c 1.844,0 4.134,-1.293 5.085,-2.881 l 6.562,-10.918 c 0.774,-1.602 0.748,-3.93 -0.138,-5.406 l -3.875,-6.414 z"
         id="path95"
         inkscape:connector-curvature="0" /><radialGradient
         id="SVGID_2_"
         cx="106.8701"
         cy="360.17191"
         r="80.391998"
         gradientUnits="userSpaceOnUse"><stop
           offset="0"
           style="stop-color:#0DA960"
           id="stop98" /><stop
           offset="1"
           style="stop-color:#05924B"
           id="stop100" /></radialGradient><path
         style="fill:url(#SVGID_2_)"
         d="m 126.067,393.117 c 0.951,1.582 0.951,4.174 0,5.762 l -17.322,28.961 c -0.669,1.432 0.026,2.566 1.745,2.566 l 7.204,0 15.423,-25.619 -7.05,-11.67 z"
         id="path102"
         inkscape:connector-curvature="0" /><radialGradient
         id="SVGID_3_"
         cx="106.8687"
         cy="360.17331"
         r="80.390297"
         gradientUnits="userSpaceOnUse"><stop
           offset="0"
           style="stop-color:#577EC0"
           id="stop105" /><stop
           offset="1"
           style="stop-color:#557EBF"
           id="stop107" /></radialGradient><path
         style="fill:url(#SVGID_3_)"
         d="m 110.49,361.584 c -1.851,0 -2.585,1.299 -1.634,2.881 l 28.136,46.736 c 0.886,1.477 0.912,3.805 0.138,5.406 l 6.84,-11.385 -26.271,-43.639 -7.209,0 z"
         id="path109"
         inkscape:connector-curvature="0" /><radialGradient
         id="SVGID_4_"
         cx="106.8711"
         cy="360.17331"
         r="80.385902"
         gradientUnits="userSpaceOnUse"><stop
           offset="0"
           style="stop-color:#E04B3F"
           id="stop112" /><stop
           offset="1"
           style="stop-color:#CD382D"
           id="stop114" /></radialGradient><path
         style="fill:url(#SVGID_4_)"
         d="m 147.778,393.117 -17.21,-28.652 c -0.951,-1.582 -3.241,-2.881 -5.085,-2.881 l -7.785,0 26.271,43.639 3.809,-6.344 c 0.952,-1.588 0.952,-4.18 0,-5.762 z"
         id="path116"
         inkscape:connector-curvature="0" /><linearGradient
         id="SVGID_5_"
         gradientUnits="userSpaceOnUse"
         x1="141.16991"
         y1="404.8623"
         x2="121.8034"
         y2="404.8623"><stop
           offset="0"
           style="stop-color:#231F20;stop-opacity:0.2"
           id="stop119" /><stop
           offset="1"
           style="stop-color:#F2F2F2;stop-opacity:0.25"
           id="stop121" /></linearGradient><path
         style="fill:url(#SVGID_5_)"
         d="m 136.992,411.201 -10.925,-18.084 c 0.951,1.582 0.951,4.174 0,5.762 l -3.846,6.404 14.908,11.324 c 0.775,-1.601 0.749,-3.929 -0.137,-5.406 z"
         id="path123"
         inkscape:connector-curvature="0" /></g><g
       id="g125"><radialGradient
         id="SVGID_6_"
         cx="128.46581"
         cy="395.99509"
         r="28.153"
         gradientUnits="userSpaceOnUse"
         gradientTransform="translate(3.5088587,0)"><stop
           offset="0"
           style="stop-color:#FFFFFF;stop-opacity:0.1"
           id="stop128" /><stop
           offset="0.0896"
           style="stop-color:#FFFFFF;stop-opacity:0.091"
           id="stop130" /><stop
           offset="1"
           style="stop-color:#FFFFFF;stop-opacity:0"
           id="stop132" /></radialGradient><path
         style="fill:url(#SVGID_6_)"
         d="m 151.28686,393.117 -17.21,-28.652 c -0.951,-1.582 -3.241,-2.881 -5.085,-2.881 l -7.785,0 -7.208,0 c -1.851,0 -2.585,1.299 -1.634,2.881 l 17.211,28.652 c 0.951,1.582 0.951,4.174 0,5.762 l -17.322,28.961 c -0.669,1.432 0.026,2.566 1.745,2.566 l 7.204,0 7.789,0 c 1.844,0 4.134,-1.293 5.085,-2.881 l 13.401,-22.303 3.809,-6.344 c 0.952,-1.587 0.952,-4.179 0,-5.761 z"
         id="path134"
         inkscape:connector-curvature="0" /></g></g><text
     xml:space="preserve"
     style="font-style:normal;font-weight:normal;font-size:125.00003052px;line-height:100%;font-family:sans-serif;text-align:start;letter-spacing:0px;word-spacing:0px;text-anchor:start;fill:#000000;fill-opacity:1;stroke:none;stroke-width:1px;stroke-linecap:butt;stroke-linejoin:miter;stroke-opacity:1"
     x="236.11775"
     y="157.23875"
     id="text4221"
     sodipodi:linespacing="100%"><tspan
       sodipodi:role="line"
       id="tspan4223"
       x="236.11775"
       y="157.23875"
       style="font-style:normal;font-variant:normal;font-weight:normal;font-stretch:normal;font-size:125.00003052px;line-height:100%;font-family:Arial;-inkscape-font-specification:Arial;text-align:start;text-anchor:start;fill:#ffffff">DevFest Seattle</tspan><tspan
       sodipodi:role="line"
       x="236.11775"
       y="282.23877"
       id="tspan4225"
       style="font-style:normal;font-variant:normal;font-weight:normal;font-stretch:normal;font-size:125.00003052px;line-height:100%;font-family:Arial;-inkscape-font-specification:Arial;text-align:start;text-anchor:start;fill:#ffffff">Season 2018</tspan></text>
</svg>